<svg width="94" height="74" fill="none" xmlns="http://www.w3.org/2000/svg">
    <g filter="url(#a)">
        <path d="M65.715 65c-.213 0-.424-.044-.62-.128a1.527 1.527 0 0 1-.512-.36c-.091-.097-2.228-2.413-4.413-6.846a1.46 1.46 0 0 1-.069-1.125c-3.548 1.03-8.15 1.977-13.101 1.977-4.952 0-9.553-.943-13.101-1.977.13.37.104.773-.07 1.125-2.187 4.433-4.321 6.75-4.412 6.845a1.54 1.54 0 0 1-.71.43 1.574 1.574 0 0 1-.838.004c-10.847-2.971-19.489-9.513-19.844-9.79a1.494 1.494 0 0 1-.58-.99c-1.65-12.588 1.604-23.834 4.624-31.05 3.267-7.806 6.89-12.605 7.042-12.807.154-.203.36-.365.595-.47 7.05-3.123 15.782-4.746 16.147-4.813.32-.058.65-.015.943.121.293.137.534.361.687.64a53.641 53.641 0 0 1 1.612 3.165c3.438-.547 7.5-.505 7.905-.499.405.006 4.469-.048 7.905.5.387-.824.964-2.002 1.612-3.166.154-.279.394-.503.687-.64.293-.136.623-.179.943-.12.367.066 9.096 1.69 16.146 4.812.237.105.441.267.596.47.156.2 3.775 5.001 7.042 12.814 3.02 7.215 6.273 18.46 4.625 31.049a1.494 1.494 0 0 1-.574.984c-.362.277-9.004 6.819-19.843 9.79-.138.037-.28.055-.424.054ZM10.403 53.171c1.886 1.347 8.922 6.116 17.332 8.626a30.148 30.148 0 0 0 2.604-4.022c-1.353-.586-3.364-1.521-5.098-2.635a1.51 1.51 0 0 1-.468-.472 1.465 1.465 0 0 1-.134-1.274c.076-.209.199-.398.36-.555.532-.51 1.1-.986 1.697-1.424a1.568 1.568 0 0 1 1.592-.128c.087.043 8.8 4.246 18.712 4.246 9.942 0 18.625-4.2 18.71-4.242a1.57 1.57 0 0 1 1.593.127c.598.437 1.165.913 1.697 1.424.16.157.284.346.36.555a1.455 1.455 0 0 1-.134 1.274c-.118.19-.278.35-.468.472-1.735 1.108-3.75 2.05-5.099 2.635a29.982 29.982 0 0 0 2.605 4.022c8.41-2.509 15.444-7.279 17.33-8.626 2.473-20.967-9.172-38.29-10.936-40.783-5.216-2.248-11.472-3.689-13.968-4.212a50.57 50.57 0 0 0-1.462 3.042c-.14.322-.392.585-.71.745-.32.16-.687.204-1.037.127-3.351-.733-8.397-.659-8.447-.659h-.051c-.052 0-5.103-.073-8.448.659a1.57 1.57 0 0 1-1.036-.127 1.509 1.509 0 0 1-.711-.743c0-.018-.625-1.444-1.463-3.042-2.5.523-8.75 1.963-13.967 4.211-1.778 2.486-13.42 19.812-10.953 40.779h-.002Zm49.375-6.422c-4.642 0-8.419-4.02-8.419-8.962s3.777-8.962 8.419-8.962 8.417 4.02 8.417 8.962-3.775 8.962-8.415 8.962h-.002Zm0-14.943c-2.953 0-5.356 2.683-5.356 5.98 0 3.298 2.403 5.98 5.356 5.98s5.355-2.682 5.355-5.98c0-3.297-2.402-5.982-5.353-5.982l-.002.002ZM34.27 46.75c-4.64 0-8.417-4.02-8.417-8.962s3.777-8.962 8.417-8.962c4.641 0 8.42 4.02 8.42 8.962s-3.777 8.962-8.42 8.962Zm0-14.943c-2.953 0-5.354 2.683-5.354 5.98 0 3.298 2.401 5.98 5.354 5.98 2.953 0 5.355-2.683 5.355-5.98 0-3.296-2.401-5.982-5.355-5.982v.002Z"
              fill="#fff"/>
    </g>
    <defs>
        <filter id="a" x="0" y="0" width="94" height="74" filterUnits="userSpaceOnUse"
                color-interpolation-filters="sRGB">
            <feFlood flood-opacity="0" result="BackgroundImageFix"/>
            <feColorMatrix in="SourceAlpha" values="0 0 0 0 0 0 0 0 0 0 0 0 0 0 0 0 0 0 127 0" result="hardAlpha"/>
            <feOffset dy="2"/>
            <feGaussianBlur stdDeviation="3.5"/>
            <feComposite in2="hardAlpha" operator="out"/>
            <feColorMatrix values="0 0 0 0 0.264687 0 0 0 0 0.795025 0 0 0 0 0.9625 0 0 0 1 0"/>
            <feBlend in2="BackgroundImageFix" result="effect1_dropShadow_52_23"/>
            <feBlend in="SourceGraphic" in2="effect1_dropShadow_52_23" result="shape"/>
        </filter>
    </defs>
</svg>
