<svg width="57" height="57" fill="none" xmlns="http://www.w3.org/2000/svg">
    <g filter="url(#a)">
        <path d="M20.736 47.22h-5.908c-4.389-.006-7.827-3.45-7.828-7.843V12.832a7.771 7.771 0 0 1 2.28-5.55A7.795 7.795 0 0 1 14.837 5h26.54c4.392 0 7.835 3.438 7.837 7.827.007 9.85.007 18.564 0 26.64-.004 4.268-3.49 7.745-7.773 7.75h-6.964a.81.81 0 0 1-.809-.806V31.082a.806.806 0 0 1 .809-.806h5.914a945.815 945.815 0 0 1-.007-3.73V25.11H34.48a.81.81 0 0 1-.81-.807c0-.33-.005-.66-.01-.98a22.155 22.155 0 0 1 .033-2.244c.11-1.305 1.013-2.083 2.418-2.084h4.25v-5.17l-1.063.004c-.984.007-2 .013-3.006-.011-2.833-.07-4.934 1.232-6.432 3.975-.62 1.136-.94 2.423-.949 3.824v2.67a.806.806 0 0 1-.808.806h-4.116v5.157h4.084a.809.809 0 0 1 .807.807v15.356a.807.807 0 0 1-.808.807h-7.334Zm7.401-40.606h-13.3c-3.487 0-6.219 2.732-6.219 6.22v26.544c0 3.487 2.726 6.223 6.21 6.226H27.263V31.863h-4.083a.809.809 0 0 1-.808-.807v-6.768a.806.806 0 0 1 .808-.807h4.114v-1.874c.01-1.67.396-3.215 1.146-4.585 1.793-3.281 4.452-4.905 7.892-4.817.981.024 1.982.018 2.957.011.453 0 .908-.005 1.36-.005h.521a.808.808 0 0 1 .808.807v6.784a.806.806 0 0 1-.808.807h-5.058c-.7 0-.78.274-.806.603a20.553 20.553 0 0 0-.03 2.08c0 .068 0 .136.004.204h5.857a.809.809 0 0 1 .779.591l.02.064c.04.111.06.229.063.347v2.048c0 1.403.003 2.805.009 4.205a1.108 1.108 0 0 1-.31.825c-.318.317-.732.312-.886.313-.81-.004-1.619 0-2.43 0h-3.096v13.715H41.438a6.175 6.175 0 0 0 4.35-1.798 6.155 6.155 0 0 0 1.813-4.338c.006-8.074.006-16.788 0-26.634 0-3.485-2.736-6.214-6.223-6.214l-13.24-.006Z"
              fill="#fff"/>
    </g>
    <defs>
        <filter id="a" x="0" y="0" width="56.219" height="56.219" filterUnits="userSpaceOnUse"
                color-interpolation-filters="sRGB">
            <feFlood flood-opacity="0" result="BackgroundImageFix"/>
            <feColorMatrix in="SourceAlpha" values="0 0 0 0 0 0 0 0 0 0 0 0 0 0 0 0 0 0 127 0" result="hardAlpha"/>
            <feOffset dy="2"/>
            <feGaussianBlur stdDeviation="3.5"/>
            <feComposite in2="hardAlpha" operator="out"/>
            <feColorMatrix values="0 0 0 0 0.264687 0 0 0 0 0.795025 0 0 0 0 0.9625 0 0 0 1 0"/>
            <feBlend in2="BackgroundImageFix" result="effect1_dropShadow_52_14"/>
            <feBlend in="SourceGraphic" in2="effect1_dropShadow_52_14" result="shape"/>
        </filter>
    </defs>
</svg>
