<svg width="57" height="52" fill="none" xmlns="http://www.w3.org/2000/svg">
    <g filter="url(#a)">
        <path d="M28.696 42.61c-4.971 0-9.655-1.418-13.189-3.99-3.61-2.63-5.598-6.15-5.598-9.914 0-.59.05-1.18.15-1.762a5.31 5.31 0 0 1 2.825-9.804 5.255 5.255 0 0 1 3.324 1.17c3.134-2.062 7.092-3.282 11.281-3.478l2.665-7.79A2.216 2.216 0 0 1 32.793 5.6l6.4 1.566a4.326 4.326 0 1 1-.924 4.232l-4.637-1.135-1.626 4.754c3.448.448 6.608 1.585 9.225 3.32a5.31 5.31 0 0 1 8.563 4.193 5.345 5.345 0 0 1-2.45 4.473c.093.563.14 1.133.14 1.703 0 3.763-1.988 7.284-5.598 9.913-3.534 2.573-8.217 3.99-13.19 3.99ZM12.884 18.756a3.693 3.693 0 0 0-1.567 7.035.81.81 0 0 1 .443.913 8.919 8.919 0 0 0-.23 2.002c0 6.776 7.702 12.287 17.17 12.287 9.468 0 17.172-5.512 17.172-12.287-.001-.654-.074-1.306-.217-1.944a.81.81 0 0 1 .437-.907 3.694 3.694 0 0 0-3.023-6.739c-.45.188-.859.464-1.201.811a.807.807 0 0 1-1.044.088c-2.693-1.923-6.237-3.168-9.978-3.503a.807.807 0 0 1-.693-1.067l2.03-5.937a1.351 1.351 0 0 1 1.598-.872l5.34 1.307a.809.809 0 0 1 .603.636 2.711 2.711 0 1 0 .437-2.045.807.807 0 0 1-.856.324l-6.9-1.69a.608.608 0 0 0-.721.395l-2.846 8.318a.81.81 0 0 1-.742.547c-4.325.107-8.405 1.374-11.49 3.57a.81.81 0 0 1-1.052-.1 3.659 3.659 0 0 0-2.67-1.142ZM28.83 37.843a12.723 12.723 0 0 1-2.906-.343c-2.543-.597-4.218-1.761-4.401-1.892a1.965 1.965 0 1 1 2.284-3.199 9.801 9.801 0 0 0 3.09 1.282c2.384.54 4.637.101 6.695-1.304a1.966 1.966 0 0 1 2.216 3.246c-2.149 1.468-4.496 2.21-6.978 2.21Zm-6.166-4.182a.348.348 0 0 0-.2.633c.061.043 1.552 1.097 3.83 1.632.83.197 1.681.298 2.536.3 2.151 0 4.192-.649 6.067-1.928a.349.349 0 0 0-.393-.578c-2.445 1.669-5.124 2.189-7.964 1.546a11.266 11.266 0 0 1-3.666-1.538.36.36 0 0 0-.21-.067Zm12.297-3.726a3.59 3.59 0 1 1 0-7.185 3.59 3.59 0 0 1 0 7.188v-.003Zm0-5.563a1.974 1.974 0 1 0 1.974 1.973 1.98 1.98 0 0 0-1.974-1.97v-.003ZM22.47 29.938a3.59 3.59 0 1 1-.001-7.18 3.59 3.59 0 0 1 .002 7.18Zm0-5.564a1.973 1.973 0 1 0-.001 3.947 1.973 1.973 0 0 0 .002-3.947Z"
              fill="#fff"/>
    </g>
    <defs>
        <filter id="a" x=".575" y=".533" width="56.219" height="51.077" filterUnits="userSpaceOnUse"
                color-interpolation-filters="sRGB">
            <feFlood flood-opacity="0" result="BackgroundImageFix"/>
            <feColorMatrix in="SourceAlpha" values="0 0 0 0 0 0 0 0 0 0 0 0 0 0 0 0 0 0 127 0" result="hardAlpha"/>
            <feOffset dy="2"/>
            <feGaussianBlur stdDeviation="3.5"/>
            <feComposite in2="hardAlpha" operator="out"/>
            <feColorMatrix values="0 0 0 0 0.264687 0 0 0 0 0.795025 0 0 0 0 0.9625 0 0 0 1 0"/>
            <feBlend in2="BackgroundImageFix" result="effect1_dropShadow_52_16"/>
            <feBlend in="SourceGraphic" in2="effect1_dropShadow_52_16" result="shape"/>
        </filter>
    </defs>
</svg>
