<svg width="94" height="81" fill="none" xmlns="http://www.w3.org/2000/svg">
    <g filter="url(#a)">
        <path d="M72.387 72c-4.178 0-9.22-3.612-9.702-3.98-.156-.114-1.084-.726-2.073-1.376-4.476-2.938-13.79-9.054-17.863-12.518-1.407-1.206-2.17-2.691-2.178-4.192 0-1.58.78-3.083 2.354-4.463 6.911-6.367 15.385-14.476 20.58-19.698.406-.41.765-.865 1.07-1.355-.846.386-2.187 1.121-4.243 2.526-13.813 9.579-27.618 18.701-27.755 18.793-.183.114-3.84 2.34-10.329.386-5.862-1.767-12.773-4.146-12.844-4.172a1.483 1.483 0 0 1-.312-.157c-.235-.148-2.288-1.506-2.077-3.769.186-2 2.031-3.665 5.663-5.087.81-.335 34.232-14.12 45.813-18.97 4.463-1.94 19.72-8.23 19.874-8.289.455-.177 4.297-1.597 6.794.289 1.406 1.06 2.011 2.817 1.8 5.22-.145 2.042-.995 7.583-2.073 14.604-.408 2.658-.846 5.508-1.282 8.42-2.292 14.393-4.767 30.075-4.914 31.001-.069.66-.734 5.653-4.903 6.636-.46.105-.93.155-1.4.15Zm-6.481-51.09a2.169 2.169 0 0 1 1.782.815c1.866 2.267-1.983 6.183-2.031 6.223-5.22 5.249-13.727 13.397-20.69 19.813-.624.55-1.338 1.348-1.335 2.157.003.809.692 1.515 1.101 1.868 3.924 3.336 13.475 9.607 17.555 12.286 1.44.942 2.032 1.336 2.236 1.488l.038.03c1.397 1.123 6.134 3.824 8.53 3.263 2.204-.523 2.56-3.941 2.564-3.976.003-.034.007-.072.012-.106 0 0 2.558-16.211 4.919-31.037.436-2.902.873-5.757 1.281-8.416 1.025-6.678 1.91-12.446 2.047-14.382.08-.901.04-2.041-.586-2.512-.906-.685-3.008-.212-3.825.108-.128.052-15.355 6.331-19.813 8.278-11.697 4.885-45.526 18.844-45.865 18.984l-.025.011c-3.594 1.413-3.739 2.471-3.75 2.512-.023.256.33.628.546.796 1.189.407 7.284 2.483 12.523 4.063 4.922 1.483 7.557.106 7.802-.032.756-.5 14.208-9.4 27.674-18.737 3.484-2.373 5.775-3.497 7.31-3.497Z"
              fill="#fff"/>
    </g>
    <defs>
        <filter id="a" x="0" y="0" width="94" height="81" filterUnits="userSpaceOnUse"
                color-interpolation-filters="sRGB">
            <feFlood flood-opacity="0" result="BackgroundImageFix"/>
            <feColorMatrix in="SourceAlpha" values="0 0 0 0 0 0 0 0 0 0 0 0 0 0 0 0 0 0 127 0" result="hardAlpha"/>
            <feOffset dy="2"/>
            <feGaussianBlur stdDeviation="3.5"/>
            <feComposite in2="hardAlpha" operator="out"/>
            <feColorMatrix values="0 0 0 0 0.264687 0 0 0 0 0.795025 0 0 0 0 0.9625 0 0 0 1 0"/>
            <feBlend in2="BackgroundImageFix" result="effect1_dropShadow_52_29"/>
            <feBlend in="SourceGraphic" in2="effect1_dropShadow_52_29" result="shape"/>
        </filter>
    </defs>
</svg>
