<svg width="93" height="80" fill="none" xmlns="http://www.w3.org/2000/svg">
    <g filter="url(#a)">
        <path d="M31.997 71a46.037 46.037 0 0 1-19.131-4.115c-1.123-.502-2.204-1.102-3.24-1.675-.438-.24-.875-.479-1.316-.713a4.263 4.263 0 0 1-.516-.332c-.038-.028-.077-.057-.117-.084a1.518 1.518 0 0 1-.674-1.36l.01-.181a1.529 1.529 0 0 1 .514-1.049 1.512 1.512 0 0 1 1.102-.373c6.921.479 12.999-.959 18.471-4.383a17.241 17.241 0 0 1-5.94-2.855 17.132 17.132 0 0 1-6.134-8.454 1.529 1.529 0 0 1 .829-1.898c.232-.1.486-.142.738-.118l.65.056c-3.107-2.001-5.4-4.852-6.832-8.53a15.558 15.558 0 0 1-1.08-6.105 1.526 1.526 0 0 1 .7-1.254 1.506 1.506 0 0 1 1.428-.106c.603.268 1.174.51 1.723.718-2.706-3.433-3.948-7.497-3.694-12.132.138-2.458 1.24-6.179 2.524-7.46a1.491 1.491 0 0 1 1.08-.44 1.505 1.505 0 0 1 1.08.465c.06.063.122.125.183.187.154.155.308.31.47.503 6.537 7.554 14.745 12.407 24.396 14.414 1.503.31 3.023.488 4.629.674l.137.018c-.975-9.005 4.717-17.079 13.546-18.997 5.62-1.22 10.893.226 15.253 4.187.338.31.406.301.758.211a31.765 31.765 0 0 0 7.449-2.872c.154-.086.316-.155.537-.269l.368-.178a1.507 1.507 0 0 1 1.678.23 1.523 1.523 0 0 1 .416 1.65 18.297 18.297 0 0 1-3.056 5.471c1.032-.31 2.035-.685 3.004-1.062a1.506 1.506 0 0 1 1.709.444 1.527 1.527 0 0 1 .128 1.77c-.074.122-.134.222-.185.31-.106.18-.197.336-.308.499a31.58 31.58 0 0 1-6.675 6.875c-.166.125-.211.155-.21.511.062 14.897-5.554 27.417-16.69 37.222-5.851 5.132-12.951 8.444-21.112 9.84-2.84.489-5.717.736-8.6.74ZM14.14 64.122c8.07 3.64 16.803 4.694 25.95 3.132 7.602-1.296 14.203-4.368 19.617-9.131 10.448-9.19 15.715-20.937 15.658-34.91 0-1.266.463-2.234 1.421-2.96a28.226 28.226 0 0 0 3.407-3.033 21.647 21.647 0 0 1-4.096.62 1.52 1.52 0 0 1-1.512-1.998c.103-.314.306-.585.577-.773a16.133 16.133 0 0 0 4.011-3.887 37.87 37.87 0 0 1-4.875 1.595c-1.372.352-2.469.074-3.537-.9-3.658-3.32-7.891-4.485-12.585-3.466-7.65 1.66-12.307 8.576-11.076 16.44.08.506.228 1.452-.455 2.17-.684.718-1.634.6-2.09.543l-1.048-.122c-1.605-.186-3.265-.379-4.902-.718-9.896-2.075-18.373-6.931-25.212-14.451-.412 1.116-.812 2.636-.884 3.962-.293 5.375 1.719 9.668 6.15 13.124a1.522 1.522 0 0 1 .515 1.66 1.521 1.521 0 0 1-1.37 1.061c-1.932.101-3.703-.31-5.303-.884.143.903.383 1.787.717 2.637 1.852 4.732 5.257 7.726 10.41 9.15a1.528 1.528 0 0 1 .126 2.894c-1.642.62-3.289.762-4.947.724a14.093 14.093 0 0 0 4.166 4.83c2.229 1.666 4.889 2.62 8.129 2.917a1.51 1.51 0 0 1 1.315 1.084 1.53 1.53 0 0 1-.517 1.628c-5.254 4.146-11.208 6.508-17.76 7.062Z"
              fill="#fff"/>
    </g>
    <defs>
        <filter id="a" x="0" y="0" width="93" height="80" filterUnits="userSpaceOnUse"
                color-interpolation-filters="sRGB">
            <feFlood flood-opacity="0" result="BackgroundImageFix"/>
            <feColorMatrix in="SourceAlpha" values="0 0 0 0 0 0 0 0 0 0 0 0 0 0 0 0 0 0 127 0" result="hardAlpha"/>
            <feOffset dy="2"/>
            <feGaussianBlur stdDeviation="3.5"/>
            <feComposite in2="hardAlpha" operator="out"/>
            <feColorMatrix values="0 0 0 0 0.264687 0 0 0 0 0.795025 0 0 0 0 0.9625 0 0 0 1 0"/>
            <feBlend in2="BackgroundImageFix" result="effect1_dropShadow_52_28"/>
            <feBlend in="SourceGraphic" in2="effect1_dropShadow_52_28" result="shape"/>
        </filter>
    </defs>
</svg>
