<svg width="95" height="61" fill="none" xmlns="http://www.w3.org/2000/svg">
    <g filter="url(#a)" fill="#fff">
        <path d="M31.02 51.939c-12.782 0-23.184-10.401-23.184-23.184C7.836 15.972 18.238 5.57 31.02 5.57c12.78 0 23.183 10.402 23.183 23.184 0 12.781-10.4 23.184-23.184 23.184Zm0-43.319a20.14 20.14 0 0 0 0 40.282c11.104-.006 20.134-9.041 20.134-20.147 0-11.106-9.03-20.141-20.135-20.141v.006Z"/>
        <path d="M65.417 50.853c-7.11 0-12.68-9.707-12.68-22.098 0-12.392 5.57-22.099 12.68-22.099 7.11 0 12.68 9.707 12.68 22.099 0 12.391-5.57 22.098-12.68 22.098Zm0-41.154c-5.223 0-9.638 8.728-9.638 19.056 0 10.328 4.415 19.055 9.638 19.055s9.637-8.727 9.637-19.055S70.64 9.699 65.417 9.699Z"/>
        <path d="M81.799 48.796c-5.266 0-5.533-16.695-5.533-20.041s.267-20.042 5.532-20.042c5.266 0 5.533 16.696 5.533 20.042s-.267 20.041-5.532 20.041Zm0-36.81c-.974 1.429-2.485 7.142-2.485 16.769 0 9.626 1.516 15.34 2.485 16.768.973-1.428 2.484-7.142 2.484-16.768 0-9.627-1.511-15.34-2.484-16.769Z"/>
    </g>
    <defs>
        <filter id="a" x=".836" y=".571" width="93.495" height="60.368" filterUnits="userSpaceOnUse"
                color-interpolation-filters="sRGB">
            <feFlood flood-opacity="0" result="BackgroundImageFix"/>
            <feColorMatrix in="SourceAlpha" values="0 0 0 0 0 0 0 0 0 0 0 0 0 0 0 0 0 0 127 0" result="hardAlpha"/>
            <feOffset dy="2"/>
            <feGaussianBlur stdDeviation="3.5"/>
            <feComposite in2="hardAlpha" operator="out"/>
            <feColorMatrix values="0 0 0 0 0.264687 0 0 0 0 0.795025 0 0 0 0 0.9625 0 0 0 1 0"/>
            <feBlend in2="BackgroundImageFix" result="effect1_dropShadow_52_24"/>
            <feBlend in="SourceGraphic" in2="effect1_dropShadow_52_24" result="shape"/>
        </filter>
    </defs>
</svg>
