<svg width="52" height="57" fill="none" xmlns="http://www.w3.org/2000/svg">
    <g filter="url(#a)">
        <path d="M21.45 47.22c-.834 0-4.192-.138-7.321-2.223a.778.778 0 0 1-.119-.069 14.979 14.979 0 0 1-3.192-3.012c-1.257-1.604-1.945-3.474-2.02-3.685a.797.797 0 0 1-.03-.107c-.278-.85-.853-2.87-.764-4.847.134-3.285 1.196-5.449 1.65-6.226a14.452 14.452 0 0 1 3.154-3.887 13.81 13.81 0 0 1 10.613-3.108.808.808 0 0 1 .705.803l-.008 7.1a.808.808 0 0 1-1.06.769 5.012 5.012 0 0 0-1.555-.248c-2.797 0-5.073 2.293-5.073 5.113 0 2.82 2.276 5.112 5.073 5.112h.006a5.02 5.02 0 0 0 2.479-.655 5.105 5.105 0 0 0 2.571-4.04V33.937l.006-.091v-.033c.014-.337.014-.677.014-1.04V5.81A.809.809 0 0 1 27.388 5h6.973a.809.809 0 0 1 .794.966c-.024.471.008.944.095 1.408.007.037.01.073.012.11.201 1.097.73 2.69 2.097 4.258.566.61 1.203 1.151 1.897 1.61.228.149.473.29.72.42 1.705.848 3.284 1.052 3.928.982a.807.807 0 0 1 .896.805v6.922a.807.807 0 0 1-.842.808c-.104 0-2.556-.11-4.439-.609-2.455-.66-4.09-1.636-4.35-1.797v12.805c0 .956-.239 3.005-.894 4.73a14.196 14.196 0 0 1-2.474 4.118c-.153.188-1.778 2.115-4.563 3.435-2.432 1.154-4.613 1.216-5.434 1.237-.062 0-.117 0-.164.006-.016.005-.082.005-.19.005Zm-6.455-3.59c3.106 2.084 6.547 1.971 6.581 1.97l.181-.006c.797-.023 2.663-.078 4.788-1.084 2.518-1.194 3.993-2.985 4.007-3.003l.017-.02a12.57 12.57 0 0 0 2.197-3.65c.593-1.56.786-3.47.786-4.15V19.384a.809.809 0 0 1 1.226-.695c.086.052.814.533 1.24.815.006 0 1.553.978 3.92 1.611 1.071.285 2.4.431 3.246.5v-5.248c-1.06-.082-2.496-.433-3.934-1.154l-.01-.005a10.355 10.355 0 0 1-.87-.507 12.085 12.085 0 0 1-2.205-1.866l-.015-.018c-1.67-1.909-2.281-3.865-2.502-5.172a.83.83 0 0 1-.012-.118 10.37 10.37 0 0 1-.103-.907h-5.335v26.153c0 .357 0 .728-.016 1.094 0 .041 0 .082-.005.122v.016c0 .027 0 .06-.006.1v.01a6.72 6.72 0 0 1-3.386 5.34c-1 .571-2.133.87-3.285.867-3.688 0-6.69-3.018-6.69-6.729 0-3.71 3.002-6.73 6.69-6.73h.006c.334 0 .668.026.998.076l.006-5.347a12.169 12.169 0 0 0-8.65 2.808 12.815 12.815 0 0 0-2.8 3.454c-.398.687-1.319 2.568-1.437 5.497-.083 1.768.468 3.624.707 4.34a.955.955 0 0 1 .02.07c.13.343.736 1.872 1.742 3.156.78.99 1.697 1.864 2.721 2.597a.78.78 0 0 1 .183.118h-.001Zm11.575-9.76a.43.43 0 0 0 .001 0Zm7.863-27.255h-.072c.025.003.048.001.072 0ZM35.147 6a.798.798 0 0 1 .001 0Z"
              fill="#fff"/>
    </g>
    <defs>
        <filter id="a" x=".995" y="0" width="50.805" height="56.219" filterUnits="userSpaceOnUse"
                color-interpolation-filters="sRGB">
            <feFlood flood-opacity="0" result="BackgroundImageFix"/>
            <feColorMatrix in="SourceAlpha" values="0 0 0 0 0 0 0 0 0 0 0 0 0 0 0 0 0 0 127 0" result="hardAlpha"/>
            <feOffset dy="2"/>
            <feGaussianBlur stdDeviation="3.5"/>
            <feComposite in2="hardAlpha" operator="out"/>
            <feColorMatrix values="0 0 0 0 0.264687 0 0 0 0 0.795025 0 0 0 0 0.9625 0 0 0 1 0"/>
            <feBlend in2="BackgroundImageFix" result="effect1_dropShadow_52_15"/>
            <feBlend in="SourceGraphic" in2="effect1_dropShadow_52_15" result="shape"/>
        </filter>
    </defs>
</svg>
