<svg width="51" height="57" fill="none" xmlns="http://www.w3.org/2000/svg">
    <g filter="url(#a)" fill="#fff">
        <path d="M17.15 47.22a.806.806 0 0 1-.418-.118l-.073-.044a.808.808 0 0 1-.387-.69v-6.394h-7.9a.808.808 0 0 1-.807-.808V13.03a.808.808 0 0 1 .296-.627l.076-.059c.016-.012.033-.024.048-.038 2.305-2.302 4.612-4.609 6.92-6.92A1.277 1.277 0 0 1 15.84 5H43.193a.808.808 0 0 1 .807.808v1.814c0 6.102-.002 12.204-.005 18.306-.004.328-.133.64-.36.876l-8.081 8.081-4.719 4.72a1.204 1.204 0 0 1-.881.364H24.67l-4.107 4.11-2.682 2.688c-.02.033-.04.066-.062.098a.807.807 0 0 1-.668.354Zm-7.97-8.863h7.9a.807.807 0 0 1 .807.808v5.304l1.534-1.534 4.189-4.193a1.277 1.277 0 0 1 .93-.389h5.265l4.61-4.61c2.655-2.652 5.31-5.306 7.965-7.963.005-6.051.006-12.102.005-18.152v-1.01H15.959c-2.258 2.261-4.517 4.52-6.779 6.777v24.962Zm14.489-2.022a.804.804 0 0 1-.412-.115l-.069-.041a.805.805 0 0 1-.388-.69v-4.206h-5.71a.807.807 0 0 1-.808-.808V8.727a.808.808 0 0 1 .808-.809h23.194a.808.808 0 0 1 .808.772v.046c0 .06.006.124.006.188V24.49a1.208 1.208 0 0 1-.364.879c-2.07 2.061-3.88 3.875-5.537 5.536a1.25 1.25 0 0 1-.921.378h-5.263l-3 2.999-1.623 1.622-.014.021-.06.083a.806.806 0 0 1-.647.328Zm-5.772-6.668h5.708a.808.808 0 0 1 .808.808v3.121l.456-.456c1.033-1.032 2.065-2.065 3.096-3.1a1.255 1.255 0 0 1 .918-.378h5.266c1.603-1.607 3.35-3.354 5.336-5.335V9.535H17.898l-.001 20.132Z"/>
        <path d="M27.945 23.29h-2.873a.808.808 0 0 1-.808-.808v-8.687a.808.808 0 0 1 .808-.807h2.873a.808.808 0 0 1 .808.807v8.687a.808.808 0 0 1-.808.808Zm-2.061-1.617h1.256v-7.07h-1.26l.004 7.07ZM35.925 23.283h-2.872a.808.808 0 0 1-.807-.808v-8.68a.808.808 0 0 1 .807-.808h2.872a.808.808 0 0 1 .808.808v8.68a.808.808 0 0 1-.808.808Zm-2.062-1.616h1.257v-7.064h-1.257v7.064Z"/>
    </g>
    <defs>
        <filter id="a" x=".565" y="0" width="50.435" height="56.219" filterUnits="userSpaceOnUse"
                color-interpolation-filters="sRGB">
            <feFlood flood-opacity="0" result="BackgroundImageFix"/>
            <feColorMatrix in="SourceAlpha" values="0 0 0 0 0 0 0 0 0 0 0 0 0 0 0 0 0 0 127 0" result="hardAlpha"/>
            <feOffset dy="2"/>
            <feGaussianBlur stdDeviation="3.5"/>
            <feComposite in2="hardAlpha" operator="out"/>
            <feColorMatrix values="0 0 0 0 0.264687 0 0 0 0 0.795025 0 0 0 0 0.9625 0 0 0 1 0"/>
            <feBlend in2="BackgroundImageFix" result="effect1_dropShadow_52_18"/>
            <feBlend in="SourceGraphic" in2="effect1_dropShadow_52_18" result="shape"/>
        </filter>
    </defs>
</svg>
