<svg width="460" height="68" viewBox="0 0 460 68" fill="none" xmlns="http://www.w3.org/2000/svg">
<rect y="59.876" width="170" height="2" fill="url(#paint0_linear_378_136)"/>
<path d="M274.651 3.26569C273.209 0.697072 269.958 -0.216543 267.39 1.22508C264.821 2.6667 263.907 5.91764 265.349 8.48626C266.791 11.0549 270.042 11.9685 272.61 10.5269C275.179 9.08526 276.093 5.83431 274.651 3.26569ZM174.651 59.39C173.209 56.8213 169.958 55.9077 167.39 57.3493C164.821 58.791 163.907 62.0419 165.349 64.6105C166.791 67.1791 170.042 68.0928 172.61 66.6511C175.179 65.2095 176.093 61.9586 174.651 59.39ZM269.511 5.00393L267.725 6.00615L268.704 7.75024L270.489 6.74802L269.511 5.00393ZM264.153 8.01059L260.582 10.015L261.561 11.7591L265.132 9.75468L264.153 8.01059ZM257.011 12.0195L253.439 14.0239L254.418 15.768L257.989 13.7636L257.011 12.0195ZM249.868 16.0283L246.296 18.0328L247.275 19.7769L250.847 17.7724L249.868 16.0283ZM242.725 20.0372L239.153 22.0417L240.132 23.7857L243.704 21.7813L242.725 20.0372ZM235.582 24.0461L232.011 26.0505L232.989 27.7946L236.561 25.7902L235.582 24.0461ZM228.439 28.055L224.868 30.0594L225.847 31.8035L229.418 29.7991L228.439 28.055ZM221.296 32.0638L217.725 34.0683L218.704 35.8124L222.275 33.8079L221.296 32.0638ZM214.153 36.0727L210.582 38.0772L211.561 39.8212L215.132 37.8168L214.153 36.0727ZM207.011 40.0816L203.439 42.086L204.418 43.8301L207.989 41.8257L207.011 40.0816ZM199.868 44.0905L196.296 46.0949L197.275 47.839L200.847 45.8346L199.868 44.0905ZM192.725 48.0993L189.153 50.1038L190.132 51.8479L193.704 49.8434L192.725 48.0993ZM185.582 52.1082L182.011 54.1127L182.989 55.8567L186.561 53.8523L185.582 52.1082ZM178.439 56.1171L174.868 58.1215L175.847 59.8656L179.418 57.8612L178.439 56.1171ZM171.296 60.126L169.511 61.1282L170.489 62.8723L172.275 61.87L171.296 60.126Z" fill="#D9256D"/>
<rect x="460" y="7.87598" width="190" height="2" transform="rotate(-180 460 7.87598)" fill="url(#paint1_linear_378_136)"/>
<defs>
<linearGradient id="paint0_linear_378_136" x1="0" y1="61" x2="170" y2="61.0001" gradientUnits="userSpaceOnUse">
<stop stop-color="#D9256D" stop-opacity="0"/>
<stop offset="0.505208" stop-color="#D9256D"/>
</linearGradient>
<linearGradient id="paint1_linear_378_136" x1="460" y1="8.99996" x2="650" y2="9.0001" gradientUnits="userSpaceOnUse">
<stop stop-color="#D9256D" stop-opacity="0"/>
<stop offset="0.505208" stop-color="#D9256D"/>
</linearGradient>
</defs>
</svg>
